<svg width="22" height="26" viewBox="0 0 22 26" fill="none" xmlns="http://www.w3.org/2000/svg">
<path fill-rule="evenodd" clip-rule="evenodd" d="M3.57503 3.07499C5.54426 1.10575 8.21511 -0.000549316 11 -0.000549316C13.7849 -0.000549316 16.4558 1.10575 18.425 3.07499C20.3943 5.04422 21.5006 7.71507 21.5006 10.5C21.5006 13.2849 20.3943 15.9558 18.425 17.925L11 25.35L3.57503 17.925C2.5999 16.95 1.82638 15.7924 1.29863 14.5184C0.770894 13.2444 0.499268 11.879 0.499268 10.5C0.499268 9.12102 0.770894 7.75555 1.29863 6.48156C1.82638 5.20757 2.5999 4.05002 3.57503 3.07499ZM11 13.5C11.7957 13.5 12.5587 13.1839 13.1213 12.6213C13.684 12.0587 14 11.2956 14 10.5C14 9.70434 13.684 8.94127 13.1213 8.37867C12.5587 7.81606 11.7957 7.49999 11 7.49999C10.2044 7.49999 9.44131 7.81606 8.87871 8.37867C8.3161 8.94127 8.00003 9.70434 8.00002 10.5C8.00003 11.2956 8.3161 12.0587 8.87871 12.6213C9.44131 13.1839 10.2044 13.5 11 13.5Z" fill="#CA8A04"/>
</svg>
